<svg width="18" height="19" viewBox="0 0 18 19" fill="none" xmlns="http://www.w3.org/2000/svg">
<path d="M15.6726 2.8274C15.3351 2.48995 14.8773 2.30038 14.4 2.30038C13.9228 2.30038 13.465 2.48995 13.1274 2.8274L6.30005 9.6548V12.2H8.84525L15.6726 5.3726C16.0101 5.03505 16.1997 4.5773 16.1997 4.1C16.1997 3.6227 16.0101 3.16495 15.6726 2.8274Z" fill="white"/>
<path fill-rule="evenodd" clip-rule="evenodd" d="M1.80005 5.90001C1.80005 5.42262 1.98969 4.96478 2.32726 4.62721C2.66482 4.28965 3.12266 4.10001 3.60005 4.10001H7.20005C7.43874 4.10001 7.66766 4.19483 7.83644 4.36361C8.00523 4.53239 8.10005 4.76131 8.10005 5.00001C8.10005 5.2387 8.00523 5.46762 7.83644 5.6364C7.66766 5.80518 7.43874 5.90001 7.20005 5.90001H3.60005V14.9H12.6V11.3C12.6 11.0613 12.6949 10.8324 12.8637 10.6636C13.0324 10.4948 13.2614 10.4 13.5 10.4C13.7387 10.4 13.9677 10.4948 14.1364 10.6636C14.3052 10.8324 14.4 11.0613 14.4 11.3V14.9C14.4 15.3774 14.2104 15.8352 13.8728 16.1728C13.5353 16.5104 13.0774 16.7 12.6 16.7H3.60005C3.12266 16.7 2.66482 16.5104 2.32726 16.1728C1.98969 15.8352 1.80005 15.3774 1.80005 14.9V5.90001Z" fill="white"/>
</svg>
